{
  "asset": {
    "version": "2.0",
    "generator": "THREE.GLTFExporter r182"
  },
  "scenes": [
    {
      "name": "Scene",
      "nodes": [
        0,
        6,
        7,
        8
      ]
    }
  ],
  "scene": 0,
  "nodes": [
    {
      "name": "final.glb",
      "children": [
        1
      ]
    },
    {
      "name": "champain",
      "extras": {
        "name": "champain"
      },
      "children": [
        2,
        3,
        4,
        5
      ]
    },
    {
      "name": "Circle",
      "mesh": 0
    },
    {
      "name": "Circle_1",
      "mesh": 1
    },
    {
      "name": "Circle_2",
      "mesh": 2
    },
    {
      "name": "Circle_3",
      "mesh": 3
    },
    {
      "matrix": [
        1,
        0,
        0,
        0,
        0,
        1,
        0,
        0,
        0,
        0,
        1,
        0,
        0,
        2.1053508976734094,
        1.2181548716585322,
        1
      ],
      "name": "PointLight",
      "extensions": {
        "KHR_lights_punctual": {
          "light": 0
        }
      }
    },
    {
      "matrix": [
        1,
        0,
        0,
        0,
        0,
        1,
        0,
        0,
        0,
        0,
        1,
        0,
        0,
        6.583963207959896,
        0,
        1
      ],
      "name": "HemisphereLight"
    },
    {
      "matrix": [
        1,
        0,
        0,
        0,
        0,
        1,
        0,
        0,
        0,
        0,
        1,
        0,
        0,
        0.12140019903033994,
        -1.6620351865883443,
        1
      ],
      "name": "PointLight",
      "extensions": {
        "KHR_lights_punctual": {
          "light": 1
        }
      }
    }
  ],
  "bufferViews": [
    {
      "buffer": 0,
      "byteOffset": 0,
      "byteLength": 27312,
      "target": 34962,
      "byteStride": 12
    },
    {
      "buffer": 0,
      "byteOffset": 27312,
      "byteLength": 27312,
      "target": 34962,
      "byteStride": 12
    },
    {
      "buffer": 0,
      "byteOffset": 54624,
      "byteLength": 18208,
      "target": 34962,
      "byteStride": 8
    },
    {
      "buffer": 0,
      "byteOffset": 72832,
      "byteLength": 18208,
      "target": 34962,
      "byteStride": 8
    },
    {
      "buffer": 0,
      "byteOffset": 91040,
      "byteLength": 36416,
      "target": 34962,
      "byteStride": 16
    },
    {
      "buffer": 0,
      "byteOffset": 127456,
      "byteLength": 22272,
      "target": 34963
    },
    {
      "buffer": 0,
      "byteOffset": 149728,
      "byteLength": 1428,
      "target": 34962,
      "byteStride": 12
    },
    {
      "buffer": 0,
      "byteOffset": 151156,
      "byteLength": 1428,
      "target": 34962,
      "byteStride": 12
    },
    {
      "buffer": 0,
      "byteOffset": 152584,
      "byteLength": 952,
      "target": 34962,
      "byteStride": 8
    },
    {
      "buffer": 0,
      "byteOffset": 153536,
      "byteLength": 952,
      "target": 34962,
      "byteStride": 8
    },
    {
      "buffer": 0,
      "byteOffset": 154488,
      "byteLength": 1904,
      "target": 34962,
      "byteStride": 16
    },
    {
      "buffer": 0,
      "byteOffset": 156392,
      "byteLength": 768,
      "target": 34963
    },
    {
      "buffer": 0,
      "byteOffset": 157160,
      "byteLength": 30444,
      "target": 34962,
      "byteStride": 12
    },
    {
      "buffer": 0,
      "byteOffset": 187604,
      "byteLength": 30444,
      "target": 34962,
      "byteStride": 12
    },
    {
      "buffer": 0,
      "byteOffset": 218048,
      "byteLength": 20296,
      "target": 34962,
      "byteStride": 8
    },
    {
      "buffer": 0,
      "byteOffset": 238344,
      "byteLength": 20296,
      "target": 34962,
      "byteStride": 8
    },
    {
      "buffer": 0,
      "byteOffset": 258640,
      "byteLength": 40592,
      "target": 34962,
      "byteStride": 16
    },
    {
      "buffer": 0,
      "byteOffset": 299232,
      "byteLength": 27264,
      "target": 34963
    },
    {
      "buffer": 0,
      "byteOffset": 326496,
      "byteLength": 25704,
      "target": 34962,
      "byteStride": 12
    },
    {
      "buffer": 0,
      "byteOffset": 352200,
      "byteLength": 25704,
      "target": 34962,
      "byteStride": 12
    },
    {
      "buffer": 0,
      "byteOffset": 377904,
      "byteLength": 17136,
      "target": 34962,
      "byteStride": 8
    },
    {
      "buffer": 0,
      "byteOffset": 395040,
      "byteLength": 17136,
      "target": 34962,
      "byteStride": 8
    },
    {
      "buffer": 0,
      "byteOffset": 412176,
      "byteLength": 34272,
      "target": 34962,
      "byteStride": 16
    },
    {
      "buffer": 0,
      "byteOffset": 446448,
      "byteLength": 19968,
      "target": 34963
    }
  ],
  "buffers": [
    {
      "byteLength": 466416,
      "uri": "data:application/octet-stream;base64,"
    }
  ],
  "accessors": [
    {
      "bufferView": 0,
      "componentType": 5126,
      "count": 2276,
      "max": [
        0.2815207242965698,
        2.915447235107422,
        0.24859964847564697
      ],
      "min": [
        -0.10278201103210449,
        2.4398224353790283,
        -0.13570307195186615
      ],
      "type": "VEC3"
    },
    {
      "bufferView": 1,
      "componentType": 5126,
      "count": 2276,
      "max": [
        0.9990488290786743,
        0.993028998374939,
        0.9990488290786743
      ],
      "min": [
        -0.9990488290786743,
        -0.7446679472923279,
        -0.9990488290786743
      ],
      "type": "VEC3"
    },
    {
      "bufferView": 2,
      "componentType": 5126,
      "count": 2276,
      "max": [
        0,
        1
      ],
      "min": [
        0,
        1
      ],
      "type": "VEC2"
    },
    {
      "bufferView": 3,
      "componentType": 5126,
      "count": 2276,
      "max": [
        1.1239383220672607,
        1.1239383220672607
      ],
      "min": [
        -0.12393814325332642,
        -0.8949991464614868
      ],
      "type": "VEC2"
    },
    {
      "bufferView": 4,
      "componentType": 5126,
      "count": 2276,
      "max": [
        0.9990000128746033,
        0.9039999842643738,
        0.42260000109672546,
        1
      ],
      "min": [
        -0.9063000082969666,
        -0.9039999842643738,
        -0.9990000128746033,
        -1
      ],
      "type": "VEC4"
    },
    {
      "bufferView": 5,
      "componentType": 5123,
      "count": 11136,
      "max": [
        2275
      ],
      "min": [
        0
      ],
      "type": "SCALAR"
    },
    {
      "bufferView": 6,
      "componentType": 5126,
      "count": 119,
      "max": [
        0.5170377492904663,
        1.0285873413085938,
        0.527878999710083
      ],
      "min": [
        -0.11005547642707825,
        -0.16064061224460602,
        0.2555590867996216
      ],
      "type": "VEC3"
    },
    {
      "bufferView": 7,
      "componentType": 5126,
      "count": 119,
      "max": [
        0.906313419342041,
        0.0063003795221447945,
        0.9990489482879639
      ],
      "min": [
        -0.4226062595844269,
        0,
        0.42259788513183594
      ],
      "type": "VEC3"
    },
    {
      "bufferView": 8,
      "componentType": 5126,
      "count": 119,
      "max": [
        0,
        1
      ],
      "min": [
        0,
        1
      ],
      "type": "VEC2"
    },
    {
      "bufferView": 9,
      "componentType": 5126,
      "count": 119,
      "max": [
        1.2244855165481567,
        2.074082374572754
      ],
      "min": [
        -0.22448620200157166,
        -0.008397817611694336
      ],
      "type": "VEC2"
    },
    {
      "bufferView": 10,
      "componentType": 5126,
      "count": 119,
      "max": [
        0.9990000128746033,
        0.10540000349283218,
        0.42260000109672546,
        1
      ],
      "min": [
        0.4196999967098236,
        -0.1054999977350235,
        -0.9063000082969666,
        1
      ],
      "type": "VEC4"
    },
    {
      "bufferView": 11,
      "componentType": 5123,
      "count": 384,
      "max": [
        118
      ],
      "min": [
        0
      ],
      "type": "SCALAR"
    },
    {
      "bufferView": 12,
      "componentType": 5126,
      "count": 2537,
      "max": [
        0.5607999563217163,
        2.4398226737976074,
        0.527878999710083
      ],
      "min": [
        -0.3820614218711853,
        -0.4713131785392761,
        -0.414982408285141
      ],
      "type": "VEC3"
    },
    {
      "bufferView": 13,
      "componentType": 5126,
      "count": 2537,
      "max": [
        0.9990489482879639,
        0.36351272463798523,
        0.9990489482879639
      ],
      "min": [
        -0.9990489482879639,
        -1,
        -0.9990489482879639
      ],
      "type": "VEC3"
    },
    {
      "bufferView": 14,
      "componentType": 5126,
      "count": 2537,
      "max": [
        0,
        1
      ],
      "min": [
        0,
        1
      ],
      "type": "VEC2"
    },
    {
      "bufferView": 15,
      "componentType": 5126,
      "count": 2537,
      "max": [
        0.9630868434906006,
        1.5175285339355469
      ],
      "min": [
        0.04509100317955017,
        -1.381476879119873
      ],
      "type": "VEC2"
    },
    {
      "bufferView": 16,
      "componentType": 5126,
      "count": 2537,
      "max": [
        1,
        0.8307999968528748,
        0.7372999787330627,
        1
      ],
      "min": [
        -0.675599992275238,
        -0.8307999968528748,
        -0.9990000128746033,
        -1
      ],
      "type": "VEC4"
    },
    {
      "bufferView": 17,
      "componentType": 5123,
      "count": 13632,
      "max": [
        2536
      ],
      "min": [
        0
      ],
      "type": "SCALAR"
    },
    {
      "bufferView": 18,
      "componentType": 5126,
      "count": 2142,
      "max": [
        0.5201835632324219,
        3.0044784545898438,
        0.48726218938827515
      ],
      "min": [
        -0.34144437313079834,
        -0.3743518888950348,
        -0.37436577677726746
      ],
      "type": "VEC3"
    },
    {
      "bufferView": 19,
      "componentType": 5126,
      "count": 2142,
      "max": [
        0.9989805817604065,
        1,
        0.9989805817604065
      ],
      "min": [
        -0.9989805817604065,
        -1,
        -0.9989805817604065
      ],
      "type": "VEC3"
    },
    {
      "bufferView": 20,
      "componentType": 5126,
      "count": 2142,
      "max": [
        0,
        1
      ],
      "min": [
        0,
        1
      ],
      "type": "VEC2"
    },
    {
      "bufferView": 21,
      "componentType": 5126,
      "count": 2142,
      "max": [
        28.266286849975586,
        107.62693786621094
      ],
      "min": [
        -27.266286849975586,
        -76.82901763916016
      ],
      "type": "VEC2"
    },
    {
      "bufferView": 22,
      "componentType": 5126,
      "count": 2142,
      "max": [
        0.9991000294685364,
        0.9750000238418579,
        0.7369999885559082,
        1
      ],
      "min": [
        -0.9990000128746033,
        -0.9750000238418579,
        -0.9991000294685364,
        -1
      ],
      "type": "VEC4"
    },
    {
      "bufferView": 23,
      "componentType": 5123,
      "count": 9984,
      "max": [
        2141
      ],
      "min": [
        0
      ],
      "type": "SCALAR"
    }
  ],
  "materials": [
    {
      "pbrMetallicRoughness": {
        "metallicFactor": 1,
        "roughnessFactor": 1,
        "metallicRoughnessTexture": {
          "index": 0,
          "texCoord": 1
        },
        "baseColorTexture": {
          "index": 1,
          "texCoord": 1
        }
      },
      "normalTexture": {
        "index": 2,
        "texCoord": 1
      },
      "doubleSided": true,
      "name": "Red leather",
      "extensions": {
        "KHR_materials_specular": {
          "specularTexture": {
            "index": 3,
            "texCoord": 1
          },
          "specularFactor": 1,
          "specularColorFactor": [
            1,
            1,
            1
          ]
        }
      }
    },
    {
      "pbrMetallicRoughness": {
        "metallicFactor": 0,
        "roughnessFactor": 0.5,
        "baseColorTexture": {
          "index": 4,
          "texCoord": 1
        }
      },
      "doubleSided": true,
      "name": "Material.002"
    },
    {
      "pbrMetallicRoughness": {
        "baseColorFactor": [
          0.010960008949041367,
          0.023153385147452354,
          0.01370208989828825,
          1
        ],
        "metallicFactor": 0,
        "roughnessFactor": 0.05000000074505806
      },
      "doubleSided": true,
      "name": "Glass",
      "extensions": {
        "KHR_materials_transmission": {
          "transmissionFactor": 1
        },
        "KHR_materials_volume": {
          "thicknessFactor": 0,
          "attenuationColor": [
            1,
            1,
            1
          ]
        },
        "KHR_materials_ior": {
          "ior": 1.4500000476837158
        }
      }
    },
    {
      "pbrMetallicRoughness": {
        "baseColorFactor": [
          0.793775200843811,
          0.40450823307037354,
          0.08769526332616806,
          1
        ],
        "metallicFactor": 0,
        "roughnessFactor": 0.5
      },
      "doubleSided": true,
      "name": "Realistic Liquor Bottle Cap Material"
    }
  ],
  "textures": [
    {
      "sampler": 0,
      "source": 0,
      "name": "leather_metallic-leather_glossiness"
    },
    {
      "sampler": 1,
      "source": 1,
      "name": "leather05_diffuse"
    },
    {
      "sampler": 2,
      "source": 2,
      "name": "leather_normal_opengl"
    },
    {
      "sampler": 3,
      "source": 3,
      "name": "leather_specular"
    },
    {
      "sampler": 4,
      "source": 4,
      "name": "ChatGPT Image Oct 24, 2025, 03_01_25 PM"
    }
  ],
  "samplers": [
    {
      "magFilter": 9729,
      "minFilter": 9987,
      "wrapS": 10497,
      "wrapT": 10497
    },
    {
      "magFilter": 9729,
      "minFilter": 9987,
      "wrapS": 10497,
      "wrapT": 10497
    },
    {
      "magFilter": 9729,
      "minFilter": 9987,
      "wrapS": 10497,
      "wrapT": 10497
    },
    {
      "magFilter": 9729,
      "minFilter": 9987,
      "wrapS": 10497,
      "wrapT": 10497
    },
    {
      "magFilter": 9729,
      "minFilter": 9987,
      "wrapS": 10497,
      "wrapT": 10497
    }
  ],
  "images": [
    {
      "mimeType": "image/jpeg",
      "uri": "data:image/jpeg;base64,"
    },
    {
      "mimeType": "image/jpeg",
      "uri": "data:image/jpeg;base64,"
    },
    {
      "mimeType": "image/jpeg",
      "uri": "data:image/jpeg;base64,"
    },
    {
      "mimeType": "image/jpeg",
      "uri": "data:image/jpeg;base64,"
    },
    {
      "mimeType": "image/jpeg",
      "uri": "data:image/jpeg;base64,"
    }
  ],
  "meshes": [
    {
      "primitives": [
        {
          "mode": 4,
          "attributes": {
            "POSITION": 0,
            "NORMAL": 1,
            "TEXCOORD_0": 2,
            "TEXCOORD_1": 3,
            "TANGENT": 4
          },
          "indices": 5,
          "material": 0
        }
      ]
    },
    {
      "primitives": [
        {
          "mode": 4,
          "attributes": {
            "POSITION": 6,
            "NORMAL": 7,
            "TEXCOORD_0": 8,
            "TEXCOORD_1": 9,
            "TANGENT": 10
          },
          "indices": 11,
          "material": 1
        }
      ]
    },
    {
      "primitives": [
        {
          "mode": 4,
          "attributes": {
            "POSITION": 12,
            "NORMAL": 13,
            "TEXCOORD_0": 14,
            "TEXCOORD_1": 15,
            "TANGENT": 16
          },
          "indices": 17,
          "material": 2
        }
      ]
    },
    {
      "primitives": [
        {
          "mode": 4,
          "attributes": {
            "POSITION": 18,
            "NORMAL": 19,
            "TEXCOORD_0": 20,
            "TEXCOORD_1": 21,
            "TANGENT": 22
          },
          "indices": 23,
          "material": 3
        }
      ]
    }
  ],
  "extensions": {
    "KHR_lights_punctual": {
      "lights": [
        {
          "name": "PointLight",
          "color": [
            1,
            1,
            1
          ],
          "intensity": 2,
          "type": "point"
        },
        {
          "name": "PointLight",
          "color": [
            1,
            1,
            1
          ],
          "intensity": 3,
          "type": "point"
        }
      ]
    }
  },
  "extensionsUsed": [
    "KHR_materials_specular",
    "KHR_materials_transmission",
    "KHR_materials_volume",
    "KHR_materials_ior",
    "KHR_lights_punctual"
  ]
}